<?xml version="1.0" encoding="utf-8"?>
<!-- Generator: Adobe Illustrator 18.0.0, SVG Export Plug-In . SVG Version: 6.00 Build 0)  -->
<!DOCTYPE svg PUBLIC "-//W3C//DTD SVG 1.1//EN" "http://www.w3.org/Graphics/SVG/1.1/DTD/svg11.dtd">
<svg version="1.1" id="Laag_1" xmlns:serif="http://www.serif.com/"
	 xmlns="http://www.w3.org/2000/svg" xmlns:xlink="http://www.w3.org/1999/xlink" x="0px" y="0px" viewBox="275.3 -6.7 409.5 573.5"
	 enable-background="new 275.3 -6.7 409.5 573.5" xml:space="preserve">
<g id="PRINT" transform="matrix(8.33333,0,0,8.33333,0,0)">
	<g transform="matrix(1,0,0,1,-14.1732,-14.177)">
		<rect x="47.2" y="13.4" fill="#4B418E" width="49.1" height="68.8"/>
	</g>
	<g transform="matrix(-436.118,312.443,312.443,436.118,687.802,257.473)">
		
			<linearGradient id="SVGID_1_" gradientUnits="userSpaceOnUse" x1="0.8356" y1="-1.035" x2="1.8356" y2="-1.035" gradientTransform="matrix(5.644023e-002 0 0 -5.644023e-002 0.6684 -1.0359)">
			<stop  offset="0" style="stop-color:#2F1B46"/>
			<stop  offset="0.66" style="stop-color:#5500D4"/>
			<stop  offset="1" style="stop-color:#7564E0"/>
		</linearGradient>
		<path fill="url(#SVGID_1_)" d="M0.7-1.1C0.7-1.1,0.7-1.1,0.7-1.1C0.7-1,0.7-1,0.7-1.1c0,0.1,0,0.1,0,0.1L0.7-1.1L0.7-1.1z"/>
	</g>
	<g transform="matrix(-383.405,309.673,309.673,383.405,750.567,201.816)">
		
			<linearGradient id="SVGID_2_" gradientUnits="userSpaceOnUse" x1="1.0131" y1="-1.1694" x2="2.0131" y2="-1.1694" gradientTransform="matrix(5.644023e-002 0 0 -5.644023e-002 0.8217 -1.1603)">
			<stop  offset="0" style="stop-color:#2F1B46"/>
			<stop  offset="0.66" style="stop-color:#5500D4"/>
			<stop  offset="1" style="stop-color:#7564E0"/>
		</linearGradient>
		<path fill="url(#SVGID_2_)" d="M0.8-1.2C0.9-1.2,0.9-1.2,0.8-1.2C0.9-1.2,0.8-1.2,0.8-1.2C0.9-1.1,0.9-1.1,0.8-1.2L0.8-1.2
			L0.8-1.2z"/>
	</g>
	<g transform="matrix(-281.524,187.14,187.14,281.524,821.685,169.778)">
		
			<linearGradient id="SVGID_3_" gradientUnits="userSpaceOnUse" x1="1.8563" y1="-1.5983" x2="2.8563" y2="-1.5983" gradientTransform="matrix(5.644023e-002 0 0 -5.644023e-002 1.5643 -1.6103)">
			<stop  offset="0" style="stop-color:#2F1B46"/>
			<stop  offset="1" style="stop-color:#5500D4"/>
		</linearGradient>
		<path fill="url(#SVGID_3_)" d="M1.6-1.7C1.6-1.7,1.6-1.7,1.6-1.7C1.6-1.6,1.6-1.6,1.6-1.7C1.6-1.6,1.6-1.6,1.6-1.7
			c0,0.1,0,0.1,0,0.1L1.6-1.7L1.6-1.7z"/>
	</g>
	<g transform="matrix(-453.77,311.801,311.801,453.77,917.798,76.1534)">
		
			<linearGradient id="SVGID_4_" gradientUnits="userSpaceOnUse" x1="1.3647" y1="-0.9575" x2="2.3647" y2="-0.9575" gradientTransform="matrix(5.640575e-002 1.973455e-003 1.973455e-003 -5.640575e-002 1.1718 -0.9644)">
			<stop  offset="0" style="stop-color:#2F1B46"/>
			<stop  offset="0.66" style="stop-color:#5500D4"/>
			<stop  offset="1" style="stop-color:#7564E0"/>
		</linearGradient>
		<path fill="url(#SVGID_4_)" d="M1.2-1C1.2-1,1.2-1,1.2-1C1.2-1,1.2-0.9,1.2-1L1.2-1L1.2-1z"/>
	</g>
	<g>
		<g>
			<defs>
				<rect id="SVGID_5_" x="-147.1" y="-253" width="409.3" height="573.3"/>
			</defs>
			<clipPath id="SVGID_6_">
				<use xlink:href="#SVGID_5_"  overflow="visible"/>
			</clipPath>
			<g clip-path="url(#SVGID_6_)">
				<g transform="matrix(0.12,-0,-0,0.12,0,0)">
					<g transform="matrix(0.999849,0,0,0.99984,0,0)">
						
							<image overflow="visible" enable-background="new    " width="4034" height="5478" id="_Image6" xlink:href="CB7655AB.png"  transform="matrix(5.643169e-002 0 0 5.643118e-002 450.3321 2.241950e-004)">
						</image>
					</g>
				</g>
			</g>
		</g>
	</g>
	<g transform="matrix(650.639,-684.884,-684.884,-650.639,-61.123,1058.54)">
		
			<linearGradient id="SVGID_7_" gradientUnits="userSpaceOnUse" x1="0.8054" y1="0.6759" x2="1.8054" y2="0.6759" gradientTransform="matrix(5.644021e-002 0 0 -5.644021e-002 0.8333 0.6543)">
			<stop  offset="0" style="stop-color:#2F1B46"/>
			<stop  offset="0.66" style="stop-color:#5500D4"/>
			<stop  offset="1" style="stop-color:#7564E0"/>
		</linearGradient>
		<path fill="url(#SVGID_7_)" d="M0.9,0.7L0.9,0.7L0.9,0.7L0.9,0.7C0.9,0.6,0.9,0.6,0.9,0.7C0.9,0.6,0.9,0.6,0.9,0.7
			C0.9,0.7,0.9,0.7,0.9,0.7C0.9,0.7,0.9,0.7,0.9,0.7L0.9,0.7z"/>
	</g>
	<g transform="matrix(479.035,-520.841,-520.841,-479.035,-117.381,1162.04)">
		
			<linearGradient id="SVGID_8_" gradientUnits="userSpaceOnUse" x1="1.2511" y1="0.9253" x2="2.2511" y2="0.9253" gradientTransform="matrix(5.644021e-002 0 0 -5.644021e-002 1.2788 0.8948)">
			<stop  offset="0" style="stop-color:#2F1B46"/>
			<stop  offset="0.66" style="stop-color:#5500D4"/>
			<stop  offset="1" style="stop-color:#7564E0"/>
		</linearGradient>
		<path fill="url(#SVGID_8_)" d="M1.3,0.9L1.3,0.9C1.3,0.9,1.3,0.9,1.3,0.9C1.3,0.9,1.3,0.9,1.3,0.9C1.3,0.9,1.3,0.9,1.3,0.9
			L1.3,0.9z"/>
	</g>
	<g transform="matrix(484.261,-421.551,-421.551,-484.261,-217.48,1140.5)">
		
			<linearGradient id="SVGID_9_" gradientUnits="userSpaceOnUse" x1="1.3531" y1="1.0385" x2="2.3531" y2="1.0385" gradientTransform="matrix(5.644021e-002 0 0 -5.644021e-002 1.3813 1.0114)">
			<stop  offset="0" style="stop-color:#2F1B46"/>
			<stop  offset="0.66" style="stop-color:#5500D4"/>
			<stop  offset="1" style="stop-color:#7564E0"/>
		</linearGradient>
		<path fill="url(#SVGID_9_)" d="M1.4,1L1.4,1C1.4,1,1.4,1,1.4,1C1.4,1,1.4,1,1.4,1C1.4,1,1.4,1,1.4,1C1.4,1,1.4,1.1,1.4,1L1.4,1z"
			/>
	</g>
	<g transform="matrix(-460.052,-318.612,-318.612,460.052,1020.44,1157.17)">
		
			<linearGradient id="SVGID_10_" gradientUnits="userSpaceOnUse" x1="2.608" y1="-0.563" x2="3.608" y2="-0.563" gradientTransform="matrix(5.644021e-002 0 0 -5.644021e-002 2.4756 -0.6465)">
			<stop  offset="0" style="stop-color:#2F1B46"/>
			<stop  offset="0.66" style="stop-color:#5500D4"/>
			<stop  offset="1" style="stop-color:#7564E0"/>
		</linearGradient>
		<path fill="url(#SVGID_10_)" d="M2.5-0.7C2.5-0.6,2.5-0.6,2.5-0.7L2.5-0.7L2.5-0.7C2.5-0.7,2.5-0.7,2.5-0.7
			C2.5-0.7,2.5-0.7,2.5-0.7z"/>
	</g>
	<g>
		<g transform="matrix(0.12,-0,-0,0.12,0,0)">
			<g transform="matrix(0.999795,0,0,0.999989,0,0)">
				
					<image overflow="visible" enable-background="new    " width="3083" height="8774" id="_Image11" xlink:href="CB7655A8.png"  transform="matrix(5.642864e-002 0 0 5.643959e-002 282.0077 64.7551)">
				</image>
			</g>
		</g>
		<g transform="matrix(0.12,-0,-0,0.12,0,0)">
			<g transform="matrix(0.999731,0,0,0.999877,0,0)">
				
					<image overflow="visible" enable-background="new    " width="1698" height="2644" id="_Image12" xlink:href="CB7655A9.png"  transform="matrix(5.642503e-002 0 0 5.643327e-002 582.1685 410.7464)">
				</image>
			</g>
		</g>
		<g opacity="0.5">
			<g transform="matrix(-1,0,0,1,856.063,-14.177)">
				<rect x="773.9" y="82.2" fill="#2F2246" width="49.1" height="-68.8"/>
			</g>
		</g>
		<g transform="matrix(1,0,0,1,787.562,596.102)">
			<path fill="#FFFFFF" d="M-709.3-562.1c-0.1,0-0.2-0.1-0.2-0.2c0-0.1,0.1-0.2,0.2-0.2c0.1,0,0.2,0.1,0.2,0.2
				C-709.1-562.2-709.2-562.1-709.3-562.1"/>
		</g>
		<g transform="matrix(1,0,0,1,787.562,612.595)">
			<path fill="#FFFFFF" d="M-709.3-577.7c-0.1,0-0.2-0.1-0.2-0.2c0-0.1,0.1-0.2,0.2-0.2c0.1,0,0.2,0.1,0.2,0.2
				C-709.1-577.8-709.2-577.7-709.3-577.7"/>
		</g>
		<g transform="matrix(1,0,0,1,787.562,629.089)">
			<path fill="#FFFFFF" d="M-709.3-593.3c-0.1,0-0.2-0.1-0.2-0.2c0-0.1,0.1-0.2,0.2-0.2c0.1,0,0.2,0.1,0.2,0.2
				C-709.1-593.3-709.2-593.3-709.3-593.3"/>
		</g>
		<g transform="matrix(1,0,0,1,787.562,645.582)">
			<path fill="#FFFFFF" d="M-709.3-608.8c-0.1,0-0.2-0.1-0.2-0.2c0-0.1,0.1-0.2,0.2-0.2c0.1,0,0.2,0.1,0.2,0.2
				C-709.1-608.9-709.2-608.8-709.3-608.8"/>
		</g>
		<g transform="matrix(1,0,0,1,787.562,662.075)">
			<path fill="#FFFFFF" d="M-709.3-624.4c-0.1,0-0.2-0.1-0.2-0.2c0-0.1,0.1-0.2,0.2-0.2c0.1,0,0.2,0.1,0.2,0.2
				C-709.1-624.5-709.2-624.4-709.3-624.4"/>
		</g>
		<g transform="matrix(1,0,0,1,787.562,678.568)">
			<path fill="#FFFFFF" d="M-709.3-639.9c-0.1,0-0.2-0.1-0.2-0.2c0-0.1,0.1-0.2,0.2-0.2c0.1,0,0.2,0.1,0.2,0.2
				C-709.1-640-709.2-639.9-709.3-639.9"/>
		</g>
		<g transform="matrix(1,0,0,1,787.562,695.061)">
			<path fill="#FFFFFF" d="M-709.3-655.5c-0.1,0-0.2-0.1-0.2-0.2c0-0.1,0.1-0.2,0.2-0.2c0.1,0,0.2,0.1,0.2,0.2
				C-709.1-655.6-709.2-655.5-709.3-655.5"/>
		</g>
		<g transform="matrix(0,1,1,0,772.509,953.503)">
			<path fill="#FFFFFF" d="M-899.5-695.2c-0.1,0-0.2,0.1-0.2,0.2c0,0.1,0.1,0.2,0.2,0.2c0.1,0,0.2-0.1,0.2-0.2
				C-899.4-695.2-899.4-695.2-899.5-695.2"/>
		</g>
		<g transform="matrix(0,1,1,0,756.016,953.503)">
			<path fill="#FFFFFF" d="M-899.5-679.7c-0.1,0-0.2,0.1-0.2,0.2c0,0.1,0.1,0.2,0.2,0.2c0.1,0,0.2-0.1,0.2-0.2
				C-899.4-679.6-899.4-679.7-899.5-679.7"/>
		</g>
		<g transform="matrix(0,1,1,0,739.522,953.503)">
			<path fill="#FFFFFF" d="M-899.5-664.1c-0.1,0-0.2,0.1-0.2,0.2c0,0.1,0.1,0.2,0.2,0.2c0.1,0,0.2-0.1,0.2-0.2
				C-899.4-664-899.4-664.1-899.5-664.1"/>
		</g>
		<g transform="matrix(0,1,1,0,95.0166,228.444)">
			<path fill="#FFFFFF" d="M-215.4-56c-0.1,0-0.2,0.1-0.2,0.2c0,0.1,0.1,0.2,0.2,0.2c0.1,0,0.2-0.1,0.2-0.2
				C-215.2-55.9-215.3-56-215.4-56"/>
		</g>
		<g transform="matrix(0,1,1,0,78.5234,228.444)">
			<path fill="#FFFFFF" d="M-215.4-40.4c-0.1,0-0.2,0.1-0.2,0.2c0,0.1,0.1,0.2,0.2,0.2c0.1,0,0.2-0.1,0.2-0.2
				C-215.2-40.3-215.3-40.4-215.4-40.4"/>
		</g>
		<g transform="matrix(0,1,1,0,62.0303,228.444)">
			<path fill="#FFFFFF" d="M-215.4-24.9c-0.1,0-0.2,0.1-0.2,0.2c0,0.1,0.1,0.2,0.2,0.2c0.1,0,0.2-0.1,0.2-0.2
				C-215.2-24.8-215.3-24.9-215.4-24.9"/>
		</g>
		<g transform="matrix(0,1,1,0,351.189,380.091)">
			<path fill="#FFFFFF" d="M-358.5-297.7c-0.1,0-0.2,0.1-0.2,0.2c0,0.1,0.1,0.2,0.2,0.2c0.1,0,0.2-0.1,0.2-0.2
				C-358.3-297.6-358.4-297.7-358.5-297.7"/>
		</g>
		<g transform="matrix(0,1,1,0,334.696,380.091)">
			<path fill="#FFFFFF" d="M-358.5-282.1c-0.1,0-0.2,0.1-0.2,0.2c0,0.1,0.1,0.2,0.2,0.2c0.1,0,0.2-0.1,0.2-0.2
				C-358.3-282.1-358.4-282.1-358.5-282.1"/>
		</g>
		<g transform="matrix(0,1,1,0,318.203,380.092)">
			<path fill="#FFFFFF" d="M-358.5-266.6c-0.1,0-0.2,0.1-0.2,0.2c0,0.1,0.1,0.2,0.2,0.2c0.1,0,0.2-0.1,0.2-0.2
				C-358.3-266.5-358.4-266.6-358.5-266.6"/>
		</g>
		<g transform="matrix(-1,0,0,1,716.261,886.116)">
			<path fill="#FFFFFF" d="M642-836.4c-0.1,0-0.2,0.1-0.2,0.2c0,0.1,0.1,0.2,0.2,0.2c0.1,0,0.2-0.1,0.2-0.2
				C642.2-836.4,642.1-836.4,642-836.4"/>
		</g>
		<g transform="matrix(-1,0,0,1,716.261,869.623)">
			<path fill="#FFFFFF" d="M642-820.9c-0.1,0-0.2,0.1-0.2,0.2c0,0.1,0.1,0.2,0.2,0.2c0.1,0,0.2-0.1,0.2-0.2
				C642.2-820.8,642.1-820.9,642-820.9"/>
		</g>
		<g transform="matrix(-1,0,0,1,716.261,853.13)">
			<path fill="#FFFFFF" d="M642-805.3c-0.1,0-0.2,0.1-0.2,0.2s0.1,0.2,0.2,0.2c0.1,0,0.2-0.1,0.2-0.2S642.1-805.3,642-805.3"/>
		</g>
		<g transform="matrix(-1,0,0,1,657.017,472.458)">
			<path fill="#FFFFFF" d="M586.1-446.1c-0.1,0-0.2,0.1-0.2,0.2c0,0.1,0.1,0.2,0.2,0.2c0.1,0,0.2-0.1,0.2-0.2
				C586.3-446,586.2-446.1,586.1-446.1"/>
		</g>
		<g transform="matrix(-1,0,0,1,657.017,455.965)">
			<path fill="#FFFFFF" d="M586.1-430.6c-0.1,0-0.2,0.1-0.2,0.2c0,0.1,0.1,0.2,0.2,0.2c0.1,0,0.2-0.1,0.2-0.2
				C586.3-430.5,586.2-430.6,586.1-430.6"/>
		</g>
		<g transform="matrix(-1,0,0,1,657.017,439.471)">
			<path fill="#FFFFFF" d="M586.1-415c-0.1,0-0.2,0.1-0.2,0.2c0,0.1,0.1,0.2,0.2,0.2c0.1,0,0.2-0.1,0.2-0.2
				C586.3-414.9,586.2-415,586.1-415"/>
		</g>
		<g transform="matrix(0,1,1,0,100.01,1178.99)">
			<path fill="#FFFFFF" d="M-1112.3-60.7c-0.1,0-0.2,0.1-0.2,0.2c0,0.1,0.1,0.2,0.2,0.2s0.2-0.1,0.2-0.2
				C-1112.1-60.6-1112.2-60.7-1112.3-60.7"/>
		</g>
		<g transform="matrix(0,1,1,0,83.5161,1178.99)">
			<path fill="#FFFFFF" d="M-1112.3-45.1c-0.1,0-0.2,0.1-0.2,0.2c0,0.1,0.1,0.2,0.2,0.2s0.2-0.1,0.2-0.2
				C-1112.1-45.1-1112.2-45.1-1112.3-45.1"/>
		</g>
		<g transform="matrix(0,1,1,0,67.0229,1178.99)">
			<path fill="#FFFFFF" d="M-1112.3-29.6c-0.1,0-0.2,0.1-0.2,0.2c0,0.1,0.1,0.2,0.2,0.2s0.2-0.1,0.2-0.2
				C-1112.1-29.5-1112.2-29.6-1112.3-29.6"/>
		</g>
		<g transform="matrix(0,1,1,0,605.908,5.8208)">
			<path fill="#FFFFFF" d="M-5.3-538c-0.1,0-0.2,0.1-0.2,0.2c0,0.1,0.1,0.2,0.2,0.2s0.2-0.1,0.2-0.2C-5.2-538-5.2-538-5.3-538"/>
		</g>
		<g transform="matrix(0,1,1,0,589.415,5.8208)">
			<path fill="#FFFFFF" d="M-5.3-522.5c-0.1,0-0.2,0.1-0.2,0.2c0,0.1,0.1,0.2,0.2,0.2s0.2-0.1,0.2-0.2
				C-5.2-522.4-5.2-522.5-5.3-522.5"/>
		</g>
		<g transform="matrix(0,1,1,0,572.921,5.8213)">
			<path fill="#FFFFFF" d="M-5.3-506.9c-0.1,0-0.2,0.1-0.2,0.2c0,0.1,0.1,0.2,0.2,0.2s0.2-0.1,0.2-0.2
				C-5.2-506.8-5.2-506.9-5.3-506.9"/>
		</g>
		<g transform="matrix(-1,0,0,1,550.615,1181.86)">
			<path fill="#FFFFFF" d="M485.7-1115.5c-0.1,0-0.2,0.1-0.2,0.2s0.1,0.2,0.2,0.2c0.1,0,0.2-0.1,0.2-0.2S485.8-1115.5,485.7-1115.5"
				/>
		</g>
		<g transform="matrix(-1,0,0,1,550.615,1165.36)">
			<path fill="#FFFFFF" d="M485.7-1099.9c-0.1,0-0.2,0.1-0.2,0.2c0,0.1,0.1,0.2,0.2,0.2c0.1,0,0.2-0.1,0.2-0.2
				C485.9-1099.8,485.8-1099.9,485.7-1099.9"/>
		</g>
		<g transform="matrix(-1,0,0,1,550.615,1148.87)">
			<path fill="#FFFFFF" d="M485.7-1084.4c-0.1,0-0.2,0.1-0.2,0.2c0,0.1,0.1,0.2,0.2,0.2c0.1,0,0.2-0.1,0.2-0.2
				C485.9-1084.3,485.8-1084.4,485.7-1084.4"/>
		</g>
		<g transform="matrix(-1,0,0,1,242.204,47.4036)">
			<path fill="#FFFFFF" d="M194.7-45.1c-0.1,0-0.2,0.1-0.2,0.2c0,0.1,0.1,0.2,0.2,0.2c0.1,0,0.2-0.1,0.2-0.2
				C194.9-45,194.8-45.1,194.7-45.1"/>
		</g>
		<g transform="matrix(-1,0,0,1,242.204,30.9095)">
			<path fill="#FFFFFF" d="M194.7-29.5c-0.1,0-0.2,0.1-0.2,0.2c0,0.1,0.1,0.2,0.2,0.2c0.1,0,0.2-0.1,0.2-0.2
				C194.9-29.4,194.8-29.5,194.7-29.5"/>
		</g>
		<g transform="matrix(-1,0,0,1,242.204,14.4173)">
			<path fill="#FFFFFF" d="M194.7-13.9c-0.1,0-0.2,0.1-0.2,0.2c0,0.1,0.1,0.2,0.2,0.2c0.1,0,0.2-0.1,0.2-0.2
				C194.9-13.9,194.8-13.9,194.7-13.9"/>
		</g>
		<g transform="matrix(1,0,0,1,68.3996,553.613)">
			<path fill="#FFFFFF" d="M-30.7-522c-0.1,0-0.2-0.1-0.2-0.2c0-0.1,0.1-0.2,0.2-0.2c0.1,0,0.2,0.1,0.2,0.2
				C-30.5-522.1-30.6-522-30.7-522"/>
		</g>
		<g transform="matrix(1,0,0,1,68.3996,570.106)">
			<path fill="#FFFFFF" d="M-30.7-537.6c-0.1,0-0.2-0.1-0.2-0.2c0-0.1,0.1-0.2,0.2-0.2c0.1,0,0.2,0.1,0.2,0.2
				C-30.5-537.7-30.6-537.6-30.7-537.6"/>
		</g>
		<g transform="matrix(1,0,0,1,68.3996,586.599)">
			<path fill="#FFFFFF" d="M-30.7-553.2c-0.1,0-0.2-0.1-0.2-0.2s0.1-0.2,0.2-0.2c0.1,0,0.2,0.1,0.2,0.2S-30.6-553.2-30.7-553.2"/>
		</g>
		<g transform="matrix(1,0,0,1,68.3996,603.093)">
			<path fill="#FFFFFF" d="M-30.7-568.7c-0.1,0-0.2-0.1-0.2-0.2c0-0.1,0.1-0.2,0.2-0.2c0.1,0,0.2,0.1,0.2,0.2
				C-30.5-568.8-30.6-568.7-30.7-568.7"/>
		</g>
		<g transform="matrix(1,0,0,1,68.3996,619.586)">
			<path fill="#FFFFFF" d="M-30.7-584.3c-0.1,0-0.2-0.1-0.2-0.2c0-0.1,0.1-0.2,0.2-0.2c0.1,0,0.2,0.1,0.2,0.2
				C-30.5-584.4-30.6-584.3-30.7-584.3"/>
		</g>
		<g transform="matrix(1,0,0,1,68.3996,636.079)">
			<path fill="#FFFFFF" d="M-30.7-599.9c-0.1,0-0.2-0.1-0.2-0.2s0.1-0.2,0.2-0.2c0.1,0,0.2,0.1,0.2,0.2S-30.6-599.9-30.7-599.9"/>
		</g>
		<g transform="matrix(1,0,0,1,68.3996,652.573)">
			<path fill="#FFFFFF" d="M-30.7-615.4c-0.1,0-0.2-0.1-0.2-0.2c0-0.1,0.1-0.2,0.2-0.2c0.1,0,0.2,0.1,0.2,0.2
				C-30.5-615.5-30.6-615.4-30.7-615.4"/>
		</g>
		<g transform="matrix(1,0,0,1,87.1355,636.079)">
			<path fill="#FFFFFF" d="M-48.4-599.9c-0.1,0-0.2-0.1-0.2-0.2s0.1-0.2,0.2-0.2s0.2,0.1,0.2,0.2S-48.3-599.9-48.4-599.9"/>
		</g>
		<g transform="matrix(1,0,0,1,87.1355,652.573)">
			<path fill="#FFFFFF" d="M-48.4-615.4c-0.1,0-0.2-0.1-0.2-0.2c0-0.1,0.1-0.2,0.2-0.2s0.2,0.1,0.2,0.2
				C-48.2-615.5-48.3-615.4-48.4-615.4"/>
		</g>
		<g transform="matrix(1,0,0,1,87.1355,669.066)">
			<path fill="#FFFFFF" d="M-48.4-631c-0.1,0-0.2-0.1-0.2-0.2c0-0.1,0.1-0.2,0.2-0.2s0.2,0.1,0.2,0.2C-48.2-631.1-48.3-631-48.4-631
				"/>
		</g>
		<g transform="matrix(1,0,0,1,87.1355,685.559)">
			<path fill="#FFFFFF" d="M-48.4-646.5c-0.1,0-0.2-0.1-0.2-0.2c0-0.1,0.1-0.2,0.2-0.2s0.2,0.1,0.2,0.2
				C-48.2-646.6-48.3-646.5-48.4-646.5"/>
		</g>
		<g transform="matrix(1,0,0,1,87.1355,702.052)">
			<path fill="#FFFFFF" d="M-48.4-662.1c-0.1,0-0.2-0.1-0.2-0.2c0-0.1,0.1-0.2,0.2-0.2s0.2,0.1,0.2,0.2
				C-48.2-662.2-48.3-662.1-48.4-662.1"/>
		</g>
		<g transform="matrix(1,0,0,1,87.1355,718.545)">
			<path fill="#FFFFFF" d="M-48.4-677.7c-0.1,0-0.2-0.1-0.2-0.2c0-0.1,0.1-0.2,0.2-0.2s0.2,0.1,0.2,0.2
				C-48.2-677.7-48.3-677.7-48.4-677.7"/>
		</g>
		<g transform="matrix(1,0,0,1,87.1355,735.038)">
			<path fill="#FFFFFF" d="M-48.4-693.2c-0.1,0-0.2-0.1-0.2-0.2s0.1-0.2,0.2-0.2s0.2,0.1,0.2,0.2S-48.3-693.2-48.4-693.2"/>
		</g>
		<g transform="matrix(1,0,0,1,779.86,145.978)">
			<path fill="#FFFFFF" d="M-702-137.4c-0.1,0-0.2-0.1-0.2-0.2c0-0.1,0.1-0.2,0.2-0.2c0.1,0,0.2,0.1,0.2,0.2
				C-701.8-137.5-701.9-137.4-702-137.4"/>
		</g>
		<g transform="matrix(1,0,0,1,779.86,162.471)">
			<path fill="#FFFFFF" d="M-702-153c-0.1,0-0.2-0.1-0.2-0.2c0-0.1,0.1-0.2,0.2-0.2c0.1,0,0.2,0.1,0.2,0.2
				C-701.8-153.1-701.9-153-702-153"/>
		</g>
		<g transform="matrix(1,0,0,1,779.86,178.965)">
			<path fill="#FFFFFF" d="M-702-168.5c-0.1,0-0.2-0.1-0.2-0.2c0-0.1,0.1-0.2,0.2-0.2c0.1,0,0.2,0.1,0.2,0.2
				C-701.8-168.6-701.9-168.5-702-168.5"/>
		</g>
		<g transform="matrix(1,0,0,1,779.86,195.457)">
			<path fill="#FFFFFF" d="M-702-184.1c-0.1,0-0.2-0.1-0.2-0.2c0-0.1,0.1-0.2,0.2-0.2c0.1,0,0.2,0.1,0.2,0.2
				C-701.8-184.2-701.9-184.1-702-184.1"/>
		</g>
		<g transform="matrix(1,0,0,1,779.86,211.951)">
			<path fill="#FFFFFF" d="M-702-199.7c-0.1,0-0.2-0.1-0.2-0.2c0-0.1,0.1-0.2,0.2-0.2c0.1,0,0.2,0.1,0.2,0.2
				C-701.8-199.7-701.9-199.7-702-199.7"/>
		</g>
		<g transform="matrix(1,0,0,1,779.86,228.444)">
			<path fill="#FFFFFF" d="M-702-215.2c-0.1,0-0.2-0.1-0.2-0.2c0-0.1,0.1-0.2,0.2-0.2c0.1,0,0.2,0.1,0.2,0.2
				C-701.8-215.3-701.9-215.2-702-215.2"/>
		</g>
		<g transform="matrix(1,0,0,1,779.86,244.937)">
			<path fill="#FFFFFF" d="M-702-230.8c-0.1,0-0.2-0.1-0.2-0.2c0-0.1,0.1-0.2,0.2-0.2c0.1,0,0.2,0.1,0.2,0.2
				C-701.8-230.9-701.9-230.8-702-230.8"/>
		</g>
		<g transform="matrix(1,0,0,1,761.124,145.978)">
			<path fill="#FFFFFF" d="M-684.3-137.4c-0.1,0-0.2-0.1-0.2-0.2c0-0.1,0.1-0.2,0.2-0.2c0.1,0,0.2,0.1,0.2,0.2
				C-684.2-137.5-684.2-137.4-684.3-137.4"/>
		</g>
		<g transform="matrix(1,0,0,1,761.124,162.471)">
			<path fill="#FFFFFF" d="M-684.3-153c-0.1,0-0.2-0.1-0.2-0.2c0-0.1,0.1-0.2,0.2-0.2c0.1,0,0.2,0.1,0.2,0.2
				C-684.2-153.1-684.2-153-684.3-153"/>
		</g>
		<g transform="matrix(1,0,0,1,761.124,178.965)">
			<path fill="#FFFFFF" d="M-684.3-168.5c-0.1,0-0.2-0.1-0.2-0.2c0-0.1,0.1-0.2,0.2-0.2c0.1,0,0.2,0.1,0.2,0.2
				C-684.2-168.6-684.2-168.5-684.3-168.5"/>
		</g>
		<g transform="matrix(1,0,0,1,761.124,195.457)">
			<path fill="#FFFFFF" d="M-684.3-184.1c-0.1,0-0.2-0.1-0.2-0.2c0-0.1,0.1-0.2,0.2-0.2c0.1,0,0.2,0.1,0.2,0.2
				C-684.2-184.2-684.2-184.1-684.3-184.1"/>
		</g>
		<g transform="matrix(1,0,0,1,761.124,211.951)">
			<path fill="#FFFFFF" d="M-684.3-199.7c-0.1,0-0.2-0.1-0.2-0.2c0-0.1,0.1-0.2,0.2-0.2c0.1,0,0.2,0.1,0.2,0.2
				C-684.2-199.7-684.2-199.7-684.3-199.7"/>
		</g>
		<g transform="matrix(1,0,0,1,761.124,228.444)">
			<path fill="#FFFFFF" d="M-684.3-215.2c-0.1,0-0.2-0.1-0.2-0.2c0-0.1,0.1-0.2,0.2-0.2c0.1,0,0.2,0.1,0.2,0.2
				C-684.2-215.3-684.2-215.2-684.3-215.2"/>
		</g>
		<g transform="matrix(1,0,0,1,761.124,244.937)">
			<path fill="#FFFFFF" d="M-684.3-230.8c-0.1,0-0.2-0.1-0.2-0.2c0-0.1,0.1-0.2,0.2-0.2c0.1,0,0.2,0.1,0.2,0.2
				C-684.2-230.9-684.2-230.8-684.3-230.8"/>
		</g>
		<g transform="matrix(1,0,0,1,742.388,145.978)">
			<path fill="#FFFFFF" d="M-666.6-137.4c-0.1,0-0.2-0.1-0.2-0.2c0-0.1,0.1-0.2,0.2-0.2c0.1,0,0.2,0.1,0.2,0.2
				C-666.5-137.5-666.6-137.4-666.6-137.4"/>
		</g>
		<g transform="matrix(1,0,0,1,742.388,162.471)">
			<path fill="#FFFFFF" d="M-666.6-153c-0.1,0-0.2-0.1-0.2-0.2c0-0.1,0.1-0.2,0.2-0.2c0.1,0,0.2,0.1,0.2,0.2
				C-666.5-153.1-666.6-153-666.6-153"/>
		</g>
		<g transform="matrix(1,0,0,1,742.388,178.965)">
			<path fill="#FFFFFF" d="M-666.6-168.5c-0.1,0-0.2-0.1-0.2-0.2c0-0.1,0.1-0.2,0.2-0.2c0.1,0,0.2,0.1,0.2,0.2
				C-666.5-168.6-666.6-168.5-666.6-168.5"/>
		</g>
		<g transform="matrix(1,0,0,1,742.388,195.457)">
			<path fill="#FFFFFF" d="M-666.6-184.1c-0.1,0-0.2-0.1-0.2-0.2c0-0.1,0.1-0.2,0.2-0.2c0.1,0,0.2,0.1,0.2,0.2
				C-666.5-184.2-666.6-184.1-666.6-184.1"/>
		</g>
		<g transform="matrix(1,0,0,1,742.388,211.951)">
			<path fill="#FFFFFF" d="M-666.6-199.7c-0.1,0-0.2-0.1-0.2-0.2c0-0.1,0.1-0.2,0.2-0.2c0.1,0,0.2,0.1,0.2,0.2
				C-666.5-199.7-666.6-199.7-666.6-199.7"/>
		</g>
		<g transform="matrix(1,0,0,1,742.388,228.444)">
			<path fill="#FFFFFF" d="M-666.6-215.2c-0.1,0-0.2-0.1-0.2-0.2c0-0.1,0.1-0.2,0.2-0.2c0.1,0,0.2,0.1,0.2,0.2
				C-666.5-215.3-666.6-215.2-666.6-215.2"/>
		</g>
		<g transform="matrix(1,0,0,1,742.388,244.937)">
			<path fill="#FFFFFF" d="M-666.6-230.8c-0.1,0-0.2-0.1-0.2-0.2c0-0.1,0.1-0.2,0.2-0.2c0.1,0,0.2,0.1,0.2,0.2
				C-666.5-230.9-666.6-230.8-666.6-230.8"/>
		</g>
		<g transform="matrix(1,0,0,1,723.653,145.978)">
			<path fill="#FFFFFF" d="M-649-137.4c-0.1,0-0.2-0.1-0.2-0.2c0-0.1,0.1-0.2,0.2-0.2s0.2,0.1,0.2,0.2
				C-648.8-137.5-648.9-137.4-649-137.4"/>
		</g>
		<g transform="matrix(1,0,0,1,723.653,162.471)">
			<path fill="#FFFFFF" d="M-649-153c-0.1,0-0.2-0.1-0.2-0.2c0-0.1,0.1-0.2,0.2-0.2s0.2,0.1,0.2,0.2C-648.8-153.1-648.9-153-649-153
				"/>
		</g>
		<g transform="matrix(1,0,0,1,723.653,178.965)">
			<path fill="#FFFFFF" d="M-649-168.5c-0.1,0-0.2-0.1-0.2-0.2c0-0.1,0.1-0.2,0.2-0.2s0.2,0.1,0.2,0.2
				C-648.8-168.6-648.9-168.5-649-168.5"/>
		</g>
		<g transform="matrix(1,0,0,1,723.653,195.457)">
			<path fill="#FFFFFF" d="M-649-184.1c-0.1,0-0.2-0.1-0.2-0.2c0-0.1,0.1-0.2,0.2-0.2s0.2,0.1,0.2,0.2
				C-648.8-184.2-648.9-184.1-649-184.1"/>
		</g>
		<g transform="matrix(1,0,0,1,723.653,211.951)">
			<path fill="#FFFFFF" d="M-649-199.7c-0.1,0-0.2-0.1-0.2-0.2c0-0.1,0.1-0.2,0.2-0.2s0.2,0.1,0.2,0.2
				C-648.8-199.7-648.9-199.7-649-199.7"/>
		</g>
		<g transform="matrix(1,0,0,1,723.653,228.444)">
			<path fill="#FFFFFF" d="M-649-215.2c-0.1,0-0.2-0.1-0.2-0.2c0-0.1,0.1-0.2,0.2-0.2s0.2,0.1,0.2,0.2
				C-648.8-215.3-648.9-215.2-649-215.2"/>
		</g>
		<g transform="matrix(1,0,0,1,723.653,244.937)">
			<path fill="#FFFFFF" d="M-649-230.8c-0.1,0-0.2-0.1-0.2-0.2c0-0.1,0.1-0.2,0.2-0.2s0.2,0.1,0.2,0.2
				C-648.8-230.9-648.9-230.8-649-230.8"/>
		</g>
		<g transform="matrix(1,0,0,1,704.916,145.978)">
			<path fill="#FFFFFF" d="M-631.3-137.4c-0.1,0-0.2-0.1-0.2-0.2c0-0.1,0.1-0.2,0.2-0.2c0.1,0,0.2,0.1,0.2,0.2
				C-631.1-137.5-631.2-137.4-631.3-137.4"/>
		</g>
		<g transform="matrix(1,0,0,1,704.916,162.471)">
			<path fill="#FFFFFF" d="M-631.3-153c-0.1,0-0.2-0.1-0.2-0.2c0-0.1,0.1-0.2,0.2-0.2c0.1,0,0.2,0.1,0.2,0.2
				C-631.1-153.1-631.2-153-631.3-153"/>
		</g>
		<g transform="matrix(1,0,0,1,704.916,178.965)">
			<path fill="#FFFFFF" d="M-631.3-168.5c-0.1,0-0.2-0.1-0.2-0.2c0-0.1,0.1-0.2,0.2-0.2c0.1,0,0.2,0.1,0.2,0.2
				C-631.1-168.6-631.2-168.5-631.3-168.5"/>
		</g>
		<g transform="matrix(1,0,0,1,704.916,195.457)">
			<path fill="#FFFFFF" d="M-631.3-184.1c-0.1,0-0.2-0.1-0.2-0.2c0-0.1,0.1-0.2,0.2-0.2c0.1,0,0.2,0.1,0.2,0.2
				C-631.1-184.2-631.2-184.1-631.3-184.1"/>
		</g>
		<g transform="matrix(1,0,0,1,704.916,211.951)">
			<path fill="#FFFFFF" d="M-631.3-199.7c-0.1,0-0.2-0.1-0.2-0.2c0-0.1,0.1-0.2,0.2-0.2c0.1,0,0.2,0.1,0.2,0.2
				C-631.1-199.7-631.2-199.7-631.3-199.7"/>
		</g>
		<g transform="matrix(1,0,0,1,704.916,228.444)">
			<path fill="#FFFFFF" d="M-631.3-215.2c-0.1,0-0.2-0.1-0.2-0.2c0-0.1,0.1-0.2,0.2-0.2c0.1,0,0.2,0.1,0.2,0.2
				C-631.1-215.3-631.2-215.2-631.3-215.2"/>
		</g>
		<g transform="matrix(1,0,0,1,704.916,244.937)">
			<path fill="#FFFFFF" d="M-631.3-230.8c-0.1,0-0.2-0.1-0.2-0.2c0-0.1,0.1-0.2,0.2-0.2c0.1,0,0.2,0.1,0.2,0.2
				C-631.1-230.9-631.2-230.8-631.3-230.8"/>
		</g>
		<g transform="matrix(1,0,0,1,686.181,145.978)">
			<path fill="#FFFFFF" d="M-613.6-137.4c-0.1,0-0.2-0.1-0.2-0.2c0-0.1,0.1-0.2,0.2-0.2s0.2,0.1,0.2,0.2
				C-613.5-137.5-613.5-137.4-613.6-137.4"/>
		</g>
		<g transform="matrix(1,0,0,1,686.181,162.471)">
			<path fill="#FFFFFF" d="M-613.6-153c-0.1,0-0.2-0.1-0.2-0.2c0-0.1,0.1-0.2,0.2-0.2s0.2,0.1,0.2,0.2
				C-613.5-153.1-613.5-153-613.6-153"/>
		</g>
		<g transform="matrix(1,0,0,1,686.181,178.965)">
			<path fill="#FFFFFF" d="M-613.6-168.5c-0.1,0-0.2-0.1-0.2-0.2c0-0.1,0.1-0.2,0.2-0.2s0.2,0.1,0.2,0.2
				C-613.5-168.6-613.5-168.5-613.6-168.5"/>
		</g>
		<g transform="matrix(1,0,0,1,686.181,195.457)">
			<path fill="#FFFFFF" d="M-613.6-184.1c-0.1,0-0.2-0.1-0.2-0.2c0-0.1,0.1-0.2,0.2-0.2s0.2,0.1,0.2,0.2
				C-613.5-184.2-613.5-184.1-613.6-184.1"/>
		</g>
		<g transform="matrix(1,0,0,1,686.181,211.951)">
			<path fill="#FFFFFF" d="M-613.6-199.7c-0.1,0-0.2-0.1-0.2-0.2c0-0.1,0.1-0.2,0.2-0.2s0.2,0.1,0.2,0.2
				C-613.5-199.7-613.5-199.7-613.6-199.7"/>
		</g>
		<g transform="matrix(1,0,0,1,686.181,228.444)">
			<path fill="#FFFFFF" d="M-613.6-215.2c-0.1,0-0.2-0.1-0.2-0.2c0-0.1,0.1-0.2,0.2-0.2s0.2,0.1,0.2,0.2
				C-613.5-215.3-613.5-215.2-613.6-215.2"/>
		</g>
		<g transform="matrix(1,0,0,1,686.181,244.937)">
			<path fill="#FFFFFF" d="M-613.6-230.8c-0.1,0-0.2-0.1-0.2-0.2c0-0.1,0.1-0.2,0.2-0.2s0.2,0.1,0.2,0.2
				C-613.5-230.9-613.5-230.8-613.6-230.8"/>
		</g>
		<g transform="matrix(1,0,0,1,667.446,145.978)">
			<path fill="#FFFFFF" d="M-595.9-137.4c-0.1,0-0.2-0.1-0.2-0.2c0-0.1,0.1-0.2,0.2-0.2c0.1,0,0.2,0.1,0.2,0.2
				C-595.8-137.5-595.8-137.4-595.9-137.4"/>
		</g>
		<g transform="matrix(1,0,0,1,667.446,162.471)">
			<path fill="#FFFFFF" d="M-595.9-153c-0.1,0-0.2-0.1-0.2-0.2c0-0.1,0.1-0.2,0.2-0.2c0.1,0,0.2,0.1,0.2,0.2
				C-595.8-153.1-595.8-153-595.9-153"/>
		</g>
		<g transform="matrix(1,0,0,1,667.446,178.965)">
			<path fill="#FFFFFF" d="M-595.9-168.5c-0.1,0-0.2-0.1-0.2-0.2c0-0.1,0.1-0.2,0.2-0.2c0.1,0,0.2,0.1,0.2,0.2
				C-595.8-168.6-595.8-168.5-595.9-168.5"/>
		</g>
		<g transform="matrix(1,0,0,1,667.446,195.457)">
			<path fill="#FFFFFF" d="M-595.9-184.1c-0.1,0-0.2-0.1-0.2-0.2c0-0.1,0.1-0.2,0.2-0.2c0.1,0,0.2,0.1,0.2,0.2
				C-595.8-184.2-595.8-184.1-595.9-184.1"/>
		</g>
		<g transform="matrix(1,0,0,1,667.446,211.951)">
			<path fill="#FFFFFF" d="M-595.9-199.7c-0.1,0-0.2-0.1-0.2-0.2c0-0.1,0.1-0.2,0.2-0.2c0.1,0,0.2,0.1,0.2,0.2
				C-595.8-199.7-595.8-199.7-595.9-199.7"/>
		</g>
		<g transform="matrix(1,0,0,1,667.446,228.444)">
			<path fill="#FFFFFF" d="M-595.9-215.2c-0.1,0-0.2-0.1-0.2-0.2c0-0.1,0.1-0.2,0.2-0.2c0.1,0,0.2,0.1,0.2,0.2
				C-595.8-215.3-595.8-215.2-595.9-215.2"/>
		</g>
		<g transform="matrix(1,0,0,1,667.446,244.937)">
			<path fill="#FFFFFF" d="M-595.9-230.8c-0.1,0-0.2-0.1-0.2-0.2c0-0.1,0.1-0.2,0.2-0.2c0.1,0,0.2,0.1,0.2,0.2
				C-595.8-230.9-595.8-230.8-595.9-230.8"/>
		</g>
		<g>
			<g>
				<defs>
					<rect id="SVGID_11_" x="-147.1" y="-253" width="409.3" height="573.3"/>
				</defs>
				<clipPath id="SVGID_12_">
					<use xlink:href="#SVGID_11_"  overflow="visible"/>
				</clipPath>
				<g clip-path="url(#SVGID_12_)">
					<g transform="matrix(0.12,-0,-0,0.12,0,0)">
						<g transform="matrix(0.999904,0,0,1,0,0)">
							
								<image overflow="visible" enable-background="new    " width="2624" height="2951" id="_Image14" xlink:href="CB7655AA.png"  transform="matrix(5.643479e-002 0 0 5.644021e-002 529.8929 2.241950e-004)">
							</image>
						</g>
					</g>
					<g transform="matrix(0.12,-0,-0,0.12,0,0)">
						<g transform="matrix(1,0,0,0.999774,0,0)">
							
								<image overflow="visible" enable-background="new    " width="2041" height="3238" id="_Image15" xlink:href="CB7655A7.png"  transform="matrix(5.644021e-002 0 0 5.642746e-002 282.0077 377.2443)">
							</image>
						</g>
					</g>
				</g>
			</g>
		</g>
		<g transform="matrix(0,-1,-1,0,651.216,476.946)">
			<path fill="#FFFFFF" d="M449.8,580.4c-0.1,0-0.2,0.1-0.2,0.2s0.1,0.2,0.2,0.2c0.1,0,0.2-0.1,0.2-0.2S449.9,580.4,449.8,580.4"/>
		</g>
		<g transform="matrix(0,-1,-1,0,676.854,476.946)">
			<path fill="#FFFFFF" d="M449.8,604.6c-0.1,0-0.2,0.1-0.2,0.2c0,0.1,0.1,0.2,0.2,0.2c0.1,0,0.2-0.1,0.2-0.2
				C450,604.7,449.9,604.6,449.8,604.6"/>
		</g>
		<g transform="matrix(0,-1,-1,0,702.493,476.946)">
			<path fill="#FFFFFF" d="M449.8,628.8c-0.1,0-0.2,0.1-0.2,0.2s0.1,0.2,0.2,0.2c0.1,0,0.2-0.1,0.2-0.2S449.9,628.8,449.8,628.8"/>
		</g>
		<g transform="matrix(0,-1,-1,0,728.132,476.946)">
			<path fill="#FFFFFF" d="M449.8,653c-0.1,0-0.2,0.1-0.2,0.2c0,0.1,0.1,0.2,0.2,0.2c0.1,0,0.2-0.1,0.2-0.2
				C450,653.1,449.9,653,449.8,653"/>
		</g>
		<g transform="matrix(0,-1,-1,0,53.3515,293.005)">
			<path fill="#FFFFFF" d="M276.3,16.3c-0.1,0-0.2,0.1-0.2,0.2c0,0.1,0.1,0.2,0.2,0.2s0.2-0.1,0.2-0.2
				C276.5,16.4,276.4,16.3,276.3,16.3"/>
		</g>
		<g transform="matrix(0,-1,-1,0,78.9907,293.006)">
			<path fill="#FFFFFF" d="M276.3,40.5c-0.1,0-0.2,0.1-0.2,0.2c0,0.1,0.1,0.2,0.2,0.2c0.1,0,0.2-0.1,0.2-0.2
				C276.5,40.6,276.4,40.5,276.3,40.5"/>
		</g>
		<g transform="matrix(0,-1,-1,0,104.629,293.006)">
			<path fill="#FFFFFF" d="M276.3,64.7c-0.1,0-0.2,0.1-0.2,0.2c0,0.1,0.1,0.2,0.2,0.2c0.1,0,0.2-0.1,0.2-0.2
				C276.5,64.8,276.4,64.7,276.3,64.7"/>
		</g>
		<g transform="matrix(1,0,0,1,776.958,252.829)">
			<path fill="none" stroke="#FFFFFF" stroke-width="2" stroke-miterlimit="10" d="M-699.3-237.5l-1.5-1.1h1.9L-699.3-237.5z"/>
		</g>
		<g transform="matrix(1,0,0,1,766.154,231.551)">
			<path fill="none" stroke="#FFFFFF" stroke-width="2" stroke-miterlimit="10" d="M-689.1-220.4l1.5,0.9l-2.7,1L-689.1-220.4z"/>
		</g>
		<g transform="matrix(1,0,0,1,152.911,509.414)">
			<path fill="none" stroke="#FFFFFF" stroke-width="2" stroke-miterlimit="10" d="M-110.4-477.8l-1.1-0.9l1.6-1.9L-110.4-477.8z"/>
		</g>
		<g transform="matrix(1,0,0,1,106.458,515.205)">
			<path fill="none" stroke="#FFFFFF" stroke-width="2" stroke-miterlimit="10" d="M-66.6-484.9l-0.5-0.7l1.9-0.5L-66.6-484.9z"/>
		</g>
		<g transform="matrix(0,-1,-1,0,755.431,421.476)">
			<circle fill="none" stroke="#FFFFFF" stroke-width="2" stroke-miterlimit="10" cx="396.7" cy="679" r="0.9"/>
		</g>
		<g transform="matrix(0,-1,-1,0,236.275,618.809)">
			<circle fill="none" stroke="#FFFFFF" stroke-width="2" stroke-miterlimit="10" cx="583.4" cy="189.1" r="0.5"/>
		</g>
		<g transform="matrix(0,-1,-1,0,70.4075,377.762)">
			<circle fill="none" stroke="#FFFFFF" stroke-width="2" stroke-miterlimit="10" cx="355.8" cy="32.6" r="0.6"/>
		</g>
		<g transform="matrix(1,0,0,1,640.38,522.06)">
			<path fill="none" stroke="#FFFFFF" stroke-width="2" stroke-miterlimit="10" d="M-570.4-492.6h1.4"/>
		</g>
		<g transform="matrix(1,0,0,1,174.614,1020.55)">
			<path fill="#FFFFFF" d="M-130.9-962.6c-0.1,0-0.2-0.1-0.2-0.2c0-0.1,0.1-0.2,0.2-0.2c0.1,0,0.2,0.1,0.2,0.2
				C-130.8-962.7-130.8-962.6-130.9-962.6"/>
		</g>
		<g transform="matrix(1,0,0,1,174.614,1037.04)">
			<path fill="#FFFFFF" d="M-130.9-978.2c-0.1,0-0.2-0.1-0.2-0.2c0-0.1,0.1-0.2,0.2-0.2c0.1,0,0.2,0.1,0.2,0.2
				C-130.8-978.3-130.8-978.2-130.9-978.2"/>
		</g>
		<g transform="matrix(1,0,0,1,174.614,1053.54)">
			<path fill="#FFFFFF" d="M-130.9-993.8c-0.1,0-0.2-0.1-0.2-0.2s0.1-0.2,0.2-0.2c0.1,0,0.2,0.1,0.2,0.2S-130.8-993.8-130.9-993.8"
				/>
		</g>
		<g transform="matrix(1,0,0,1,174.614,1070.03)">
			<path fill="#FFFFFF" d="M-130.9-1009.3c-0.1,0-0.2-0.1-0.2-0.2c0-0.1,0.1-0.2,0.2-0.2c0.1,0,0.2,0.1,0.2,0.2
				C-130.8-1009.4-130.8-1009.3-130.9-1009.3"/>
		</g>
		<g transform="matrix(1,0,0,1,174.614,1086.52)">
			<path fill="#FFFFFF" d="M-130.9-1024.9c-0.1,0-0.2-0.1-0.2-0.2c0-0.1,0.1-0.2,0.2-0.2c0.1,0,0.2,0.1,0.2,0.2
				C-130.8-1024.9-130.8-1024.9-130.9-1024.9"/>
		</g>
		<g transform="matrix(1,0,0,1,174.614,1103.02)">
			<path fill="#FFFFFF" d="M-130.9-1040.4c-0.1,0-0.2-0.1-0.2-0.2s0.1-0.2,0.2-0.2c0.1,0,0.2,0.1,0.2,0.2
				S-130.8-1040.4-130.9-1040.4"/>
		</g>
		<g transform="matrix(1,0,0,1,174.614,1119.51)">
			<path fill="#FFFFFF" d="M-130.9-1056c-0.1,0-0.2-0.1-0.2-0.2c0-0.1,0.1-0.2,0.2-0.2c0.1,0,0.2,0.1,0.2,0.2
				C-130.8-1056.1-130.8-1056-130.9-1056"/>
		</g>
		<g transform="matrix(1,0,0,1,155.878,1020.55)">
			<path fill="#FFFFFF" d="M-113.2-962.6c-0.1,0-0.2-0.1-0.2-0.2c0-0.1,0.1-0.2,0.2-0.2c0.1,0,0.2,0.1,0.2,0.2
				C-113.1-962.7-113.1-962.6-113.2-962.6"/>
		</g>
		<g transform="matrix(1,0,0,1,155.878,1037.04)">
			<path fill="#FFFFFF" d="M-113.2-978.2c-0.1,0-0.2-0.1-0.2-0.2c0-0.1,0.1-0.2,0.2-0.2c0.1,0,0.2,0.1,0.2,0.2
				C-113.1-978.3-113.1-978.2-113.2-978.2"/>
		</g>
		<g transform="matrix(1,0,0,1,155.878,1053.54)">
			<path fill="#FFFFFF" d="M-113.2-993.8c-0.1,0-0.2-0.1-0.2-0.2s0.1-0.2,0.2-0.2c0.1,0,0.2,0.1,0.2,0.2S-113.1-993.8-113.2-993.8"
				/>
		</g>
		<g transform="matrix(1,0,0,1,155.878,1070.03)">
			<path fill="#FFFFFF" d="M-113.2-1009.3c-0.1,0-0.2-0.1-0.2-0.2c0-0.1,0.1-0.2,0.2-0.2c0.1,0,0.2,0.1,0.2,0.2
				C-113.1-1009.4-113.1-1009.3-113.2-1009.3"/>
		</g>
		<g transform="matrix(1,0,0,1,155.878,1086.52)">
			<path fill="#FFFFFF" d="M-113.2-1024.9c-0.1,0-0.2-0.1-0.2-0.2c0-0.1,0.1-0.2,0.2-0.2c0.1,0,0.2,0.1,0.2,0.2
				C-113.1-1024.9-113.1-1024.9-113.2-1024.9"/>
		</g>
		<g transform="matrix(1,0,0,1,155.878,1103.02)">
			<path fill="#FFFFFF" d="M-113.2-1040.4c-0.1,0-0.2-0.1-0.2-0.2s0.1-0.2,0.2-0.2c0.1,0,0.2,0.1,0.2,0.2
				S-113.1-1040.4-113.2-1040.4"/>
		</g>
		<g transform="matrix(1,0,0,1,155.878,1119.51)">
			<path fill="#FFFFFF" d="M-113.2-1056c-0.1,0-0.2-0.1-0.2-0.2c0-0.1,0.1-0.2,0.2-0.2c0.1,0,0.2,0.1,0.2,0.2
				C-113.1-1056.1-113.1-1056-113.2-1056"/>
		</g>
		<g transform="matrix(1,0,0,1,137.142,1020.55)">
			<path fill="#FFFFFF" d="M-95.6-962.6c-0.1,0-0.2-0.1-0.2-0.2c0-0.1,0.1-0.2,0.2-0.2c0.1,0,0.2,0.1,0.2,0.2
				C-95.4-962.7-95.5-962.6-95.6-962.6"/>
		</g>
		<g transform="matrix(1,0,0,1,137.142,1037.04)">
			<path fill="#FFFFFF" d="M-95.6-978.2c-0.1,0-0.2-0.1-0.2-0.2c0-0.1,0.1-0.2,0.2-0.2c0.1,0,0.2,0.1,0.2,0.2
				C-95.4-978.3-95.5-978.2-95.6-978.2"/>
		</g>
		<g transform="matrix(1,0,0,1,137.142,1053.54)">
			<path fill="#FFFFFF" d="M-95.6-993.8c-0.1,0-0.2-0.1-0.2-0.2s0.1-0.2,0.2-0.2c0.1,0,0.2,0.1,0.2,0.2S-95.5-993.8-95.6-993.8"/>
		</g>
		<g transform="matrix(1,0,0,1,137.142,1070.03)">
			<path fill="#FFFFFF" d="M-95.6-1009.3c-0.1,0-0.2-0.1-0.2-0.2c0-0.1,0.1-0.2,0.2-0.2c0.1,0,0.2,0.1,0.2,0.2
				C-95.4-1009.4-95.5-1009.3-95.6-1009.3"/>
		</g>
		<g transform="matrix(1,0,0,1,137.142,1086.52)">
			<path fill="#FFFFFF" d="M-95.6-1024.9c-0.1,0-0.2-0.1-0.2-0.2c0-0.1,0.1-0.2,0.2-0.2c0.1,0,0.2,0.1,0.2,0.2
				C-95.4-1024.9-95.5-1024.9-95.6-1024.9"/>
		</g>
		<g transform="matrix(1,0,0,1,137.142,1103.02)">
			<path fill="#FFFFFF" d="M-95.6-1040.4c-0.1,0-0.2-0.1-0.2-0.2s0.1-0.2,0.2-0.2c0.1,0,0.2,0.1,0.2,0.2S-95.5-1040.4-95.6-1040.4"
				/>
		</g>
		<g transform="matrix(1,0,0,1,137.142,1119.51)">
			<path fill="#FFFFFF" d="M-95.6-1056c-0.1,0-0.2-0.1-0.2-0.2c0-0.1,0.1-0.2,0.2-0.2c0.1,0,0.2,0.1,0.2,0.2
				C-95.4-1056.1-95.5-1056-95.6-1056"/>
		</g>
		<g transform="matrix(1,0,0,1,118.406,1020.55)">
			<path fill="#FFFFFF" d="M-77.9-962.6c-0.1,0-0.2-0.1-0.2-0.2c0-0.1,0.1-0.2,0.2-0.2c0.1,0,0.2,0.1,0.2,0.2
				C-77.7-962.7-77.8-962.6-77.9-962.6"/>
		</g>
		<g transform="matrix(1,0,0,1,118.406,1037.04)">
			<path fill="#FFFFFF" d="M-77.9-978.2c-0.1,0-0.2-0.1-0.2-0.2c0-0.1,0.1-0.2,0.2-0.2c0.1,0,0.2,0.1,0.2,0.2
				C-77.7-978.3-77.8-978.2-77.9-978.2"/>
		</g>
		<g transform="matrix(1,0,0,1,118.406,1053.54)">
			<path fill="#FFFFFF" d="M-77.9-993.8c-0.1,0-0.2-0.1-0.2-0.2s0.1-0.2,0.2-0.2c0.1,0,0.2,0.1,0.2,0.2S-77.8-993.8-77.9-993.8"/>
		</g>
		<g transform="matrix(1,0,0,1,118.406,1070.03)">
			<path fill="#FFFFFF" d="M-77.9-1009.3c-0.1,0-0.2-0.1-0.2-0.2c0-0.1,0.1-0.2,0.2-0.2c0.1,0,0.2,0.1,0.2,0.2
				C-77.7-1009.4-77.8-1009.3-77.9-1009.3"/>
		</g>
		<g transform="matrix(1,0,0,1,118.406,1086.52)">
			<path fill="#FFFFFF" d="M-77.9-1024.9c-0.1,0-0.2-0.1-0.2-0.2c0-0.1,0.1-0.2,0.2-0.2c0.1,0,0.2,0.1,0.2,0.2
				C-77.7-1024.9-77.8-1024.9-77.9-1024.9"/>
		</g>
		<g transform="matrix(1,0,0,1,118.406,1103.02)">
			<path fill="#FFFFFF" d="M-77.9-1040.4c-0.1,0-0.2-0.1-0.2-0.2s0.1-0.2,0.2-0.2c0.1,0,0.2,0.1,0.2,0.2S-77.8-1040.4-77.9-1040.4"
				/>
		</g>
		<g transform="matrix(1,0,0,1,118.406,1119.51)">
			<path fill="#FFFFFF" d="M-77.9-1056c-0.1,0-0.2-0.1-0.2-0.2c0-0.1,0.1-0.2,0.2-0.2c0.1,0,0.2,0.1,0.2,0.2
				C-77.7-1056.1-77.8-1056-77.9-1056"/>
		</g>
		<g transform="matrix(1,0,0,1,99.6706,1020.55)">
			<path fill="#FFFFFF" d="M-60.2-962.6c-0.1,0-0.2-0.1-0.2-0.2c0-0.1,0.1-0.2,0.2-0.2c0.1,0,0.2,0.1,0.2,0.2
				C-60-962.7-60.1-962.6-60.2-962.6"/>
		</g>
		<g transform="matrix(1,0,0,1,99.6706,1037.04)">
			<path fill="#FFFFFF" d="M-60.2-978.2c-0.1,0-0.2-0.1-0.2-0.2c0-0.1,0.1-0.2,0.2-0.2c0.1,0,0.2,0.1,0.2,0.2
				C-60-978.3-60.1-978.2-60.2-978.2"/>
		</g>
		<g transform="matrix(1,0,0,1,99.6706,1053.54)">
			<path fill="#FFFFFF" d="M-60.2-993.8c-0.1,0-0.2-0.1-0.2-0.2s0.1-0.2,0.2-0.2c0.1,0,0.2,0.1,0.2,0.2S-60.1-993.8-60.2-993.8"/>
		</g>
		<g transform="matrix(1,0,0,1,99.6706,1070.03)">
			<path fill="#FFFFFF" d="M-60.2-1009.3c-0.1,0-0.2-0.1-0.2-0.2c0-0.1,0.1-0.2,0.2-0.2c0.1,0,0.2,0.1,0.2,0.2
				C-60-1009.4-60.1-1009.3-60.2-1009.3"/>
		</g>
		<g transform="matrix(1,0,0,1,99.6706,1086.52)">
			<path fill="#FFFFFF" d="M-60.2-1024.9c-0.1,0-0.2-0.1-0.2-0.2c0-0.1,0.1-0.2,0.2-0.2c0.1,0,0.2,0.1,0.2,0.2
				C-60-1024.9-60.1-1024.9-60.2-1024.9"/>
		</g>
		<g transform="matrix(1,0,0,1,99.6706,1103.02)">
			<path fill="#FFFFFF" d="M-60.2-1040.4c-0.1,0-0.2-0.1-0.2-0.2s0.1-0.2,0.2-0.2c0.1,0,0.2,0.1,0.2,0.2S-60.1-1040.4-60.2-1040.4"
				/>
		</g>
		<g transform="matrix(1,0,0,1,99.6706,1119.51)">
			<path fill="#FFFFFF" d="M-60.2-1056c-0.1,0-0.2-0.1-0.2-0.2c0-0.1,0.1-0.2,0.2-0.2c0.1,0,0.2,0.1,0.2,0.2
				C-60-1056.1-60.1-1056-60.2-1056"/>
		</g>
		<g transform="matrix(1,0,0,1,80.9348,1020.55)">
			<path fill="#FFFFFF" d="M-42.5-962.6c-0.1,0-0.2-0.1-0.2-0.2c0-0.1,0.1-0.2,0.2-0.2s0.2,0.1,0.2,0.2
				C-42.4-962.7-42.4-962.6-42.5-962.6"/>
		</g>
		<g transform="matrix(1,0,0,1,80.9348,1037.04)">
			<path fill="#FFFFFF" d="M-42.5-978.2c-0.1,0-0.2-0.1-0.2-0.2c0-0.1,0.1-0.2,0.2-0.2s0.2,0.1,0.2,0.2
				C-42.4-978.3-42.4-978.2-42.5-978.2"/>
		</g>
		<g transform="matrix(1,0,0,1,80.9348,1053.54)">
			<path fill="#FFFFFF" d="M-42.5-993.8c-0.1,0-0.2-0.1-0.2-0.2s0.1-0.2,0.2-0.2s0.2,0.1,0.2,0.2S-42.4-993.8-42.5-993.8"/>
		</g>
		<g transform="matrix(1,0,0,1,80.9348,1070.03)">
			<path fill="#FFFFFF" d="M-42.5-1009.3c-0.1,0-0.2-0.1-0.2-0.2c0-0.1,0.1-0.2,0.2-0.2s0.2,0.1,0.2,0.2
				C-42.4-1009.4-42.4-1009.3-42.5-1009.3"/>
		</g>
		<g transform="matrix(1,0,0,1,80.9348,1086.52)">
			<path fill="#FFFFFF" d="M-42.5-1024.9c-0.1,0-0.2-0.1-0.2-0.2c0-0.1,0.1-0.2,0.2-0.2s0.2,0.1,0.2,0.2
				C-42.4-1024.9-42.4-1024.9-42.5-1024.9"/>
		</g>
		<g transform="matrix(1,0,0,1,80.9348,1103.02)">
			<path fill="#FFFFFF" d="M-42.5-1040.4c-0.1,0-0.2-0.1-0.2-0.2s0.1-0.2,0.2-0.2s0.2,0.1,0.2,0.2S-42.4-1040.4-42.5-1040.4"/>
		</g>
		<g transform="matrix(1,0,0,1,80.9348,1119.51)">
			<path fill="#FFFFFF" d="M-42.5-1056c-0.1,0-0.2-0.1-0.2-0.2c0-0.1,0.1-0.2,0.2-0.2s0.2,0.1,0.2,0.2
				C-42.4-1056.1-42.4-1056-42.5-1056"/>
		</g>
		<g transform="matrix(1,0,0,1,62.1994,1020.55)">
			<path fill="#FFFFFF" d="M-24.8-962.6c-0.1,0-0.2-0.1-0.2-0.2c0-0.1,0.1-0.2,0.2-0.2c0.1,0,0.2,0.1,0.2,0.2
				C-24.7-962.7-24.8-962.6-24.8-962.6"/>
		</g>
		<g transform="matrix(1,0,0,1,62.1994,1037.04)">
			<path fill="#FFFFFF" d="M-24.8-978.2c-0.1,0-0.2-0.1-0.2-0.2c0-0.1,0.1-0.2,0.2-0.2c0.1,0,0.2,0.1,0.2,0.2
				C-24.7-978.3-24.8-978.2-24.8-978.2"/>
		</g>
		<g transform="matrix(1,0,0,1,62.1994,1053.54)">
			<path fill="#FFFFFF" d="M-24.8-993.8c-0.1,0-0.2-0.1-0.2-0.2s0.1-0.2,0.2-0.2c0.1,0,0.2,0.1,0.2,0.2S-24.8-993.8-24.8-993.8"/>
		</g>
		<g transform="matrix(1,0,0,1,62.1994,1070.03)">
			<path fill="#FFFFFF" d="M-24.8-1009.3c-0.1,0-0.2-0.1-0.2-0.2c0-0.1,0.1-0.2,0.2-0.2c0.1,0,0.2,0.1,0.2,0.2
				C-24.7-1009.4-24.8-1009.3-24.8-1009.3"/>
		</g>
		<g transform="matrix(1,0,0,1,62.1994,1086.52)">
			<path fill="#FFFFFF" d="M-24.8-1024.9c-0.1,0-0.2-0.1-0.2-0.2c0-0.1,0.1-0.2,0.2-0.2c0.1,0,0.2,0.1,0.2,0.2
				C-24.7-1024.9-24.8-1024.9-24.8-1024.9"/>
		</g>
		<g transform="matrix(1,0,0,1,62.1994,1103.02)">
			<path fill="#FFFFFF" d="M-24.8-1040.4c-0.1,0-0.2-0.1-0.2-0.2s0.1-0.2,0.2-0.2c0.1,0,0.2,0.1,0.2,0.2S-24.8-1040.4-24.8-1040.4"
				/>
		</g>
		<g transform="matrix(1,0,0,1,62.1994,1119.51)">
			<path fill="#FFFFFF" d="M-24.8-1056c-0.1,0-0.2-0.1-0.2-0.2c0-0.1,0.1-0.2,0.2-0.2c0.1,0,0.2,0.1,0.2,0.2
				C-24.7-1056.1-24.8-1056-24.8-1056"/>
		</g>
		<g opacity="0.2">
			<g transform="matrix(1,0,0,1,233.467,847.514)">
				<path d="M-186.4-798.5C-186.4-798.5-186.4-798.5-186.4-798.5l0.6-0.4c0,0,0,0,0,0l-0.3-0.5c-0.6-0.1-0.9-0.2-1.1-0.3
					c0,0,0,0,0,0L-186.4-798.5z"/>
			</g>
			<g transform="matrix(-0.972996,-0.230822,-0.230822,0.972996,242.993,860.339)">
				<path d="M377.4-745.2c0.2,0,0.3,0.1,0.4,0.1l-0.4,0.4c0,0-0.1-0.1-0.3-0.2C377.2-745.3,377.4-745.2,377.4-745.2"/>
			</g>
		</g>
	</g>
</g>
</svg>
