<svg xmlns="http://www.w3.org/2000/svg" xmlns:xlink="http://www.w3.org/1999/xlink" viewBox="0 0 431.06 431.05"><defs><style>.cls-1{fill:url(#linear-gradient);}.cls-2{fill:url(#linear-gradient-2);}.cls-3{fill:none;stroke:#000;stroke-miterlimit:10;stroke-width:0.25px;}.cls-4{fill:url(#radial-gradient);}.cls-5{fill:url(#linear-gradient-3);}</style><linearGradient id="linear-gradient" x1="13.16" y1="373.18" x2="263" y2="373.18" gradientUnits="userSpaceOnUse"><stop offset="0" stop-color="#6c1581"/><stop offset="0" stop-color="#691481"/><stop offset="0" stop-color="#671481"/><stop offset="0.16" stop-color="#6b1581"/><stop offset="0.33" stop-color="#781681"/><stop offset="0.5" stop-color="#8d1980"/><stop offset="0.68" stop-color="#aa1c7f"/><stop offset="0.86" stop-color="#cf217e"/><stop offset="1" stop-color="#f4257d"/></linearGradient><linearGradient id="linear-gradient-2" y1="151.73" x2="352.27" y2="151.73" gradientUnits="userSpaceOnUse"><stop offset="0" stop-color="#f4257d"/><stop offset="1" stop-color="#671481"/></linearGradient><radialGradient id="radial-gradient" cx="135.55" cy="255.13" fx="156.3242964177448" fy="224.33821045652178" r="50.88" gradientUnits="userSpaceOnUse"><stop offset="0" stop-color="#f4257d"/><stop offset="0.16" stop-color="#e3237d"/><stop offset="0.48" stop-color="#b81e7f"/><stop offset="0.93" stop-color="#731581"/><stop offset="1" stop-color="#671481"/><stop offset="1" stop-color="#6c1581"/></radialGradient><linearGradient id="linear-gradient-3" x1="268.62" y1="263.79" x2="391.4" y2="-1.97" xlink:href="#linear-gradient-2"/></defs><g id="Layer_2" data-name="Layer 2"><g id="Layer_1-2" data-name="Layer 1"><path class="cls-1" d="M273,423.3a215.77,215.77,0,0,1-57.48,7.75A217.92,217.92,0,0,1,79,383,213.28,213.28,0,0,1,23.2,315.31a134.07,134.07,0,0,0,44.69,48.38,131.46,131.46,0,0,0,72,21.18,133.11,133.11,0,0,0,98.3-43.36Z"/><path class="cls-2" d="M352.27,133.3A133.19,133.19,0,0,1,273,255.12c0-1.15,0-2.29,0-3.44A133.38,133.38,0,0,0,97.49,125.33q-5.91,2-11.56,4.46c-47,20.66-80,67.46-79.27,121.89a136.92,136.92,0,0,0,10.81,51.73A203.93,203.93,0,0,1,.06,215.55C3,96.57,96.55.05,215.56.05c1.75,0,3.5,0,5.24.07h.8c2.21.07,4.4.17,6.59.3h0A133.16,133.16,0,0,1,352.27,133.3Z"/><path class="cls-3" d="M228.19.42C226,.29,223.81.19,221.6.12Q224.92.2,228.19.42Z"/><path class="cls-3" d="M17.57,303.66Q20.14,309.42,23,315,20,309.48,17.57,303.66Z"/><circle class="cls-4" cx="135.55" cy="255.13" r="50.88"/><path class="cls-5" d="M431.06,215.55A215.48,215.48,0,0,1,312.44,408.09L264.75,298l-15.18-35A131.38,131.38,0,0,0,273,255.12,133.21,133.21,0,0,0,228.2.42,215.44,215.44,0,0,1,431.06,215.55Z"/><line class="cls-3" x1="312.44" y1="408.1" x2="312.44" y2="408.09"/></g></g></svg>