<svg xmlns="http://www.w3.org/2000/svg" xmlns:xlink="http://www.w3.org/1999/xlink" viewBox="0 0 431 431"><defs><style>.cls-1{fill:none;stroke:#000;stroke-miterlimit:10;stroke-width:0.25px;}.cls-2{fill:url(#linear-gradient);}.cls-3{fill:url(#linear-gradient-2);}.cls-4{fill:url(#linear-gradient-3);}.cls-5{fill:url(#radial-gradient);}</style><linearGradient id="linear-gradient" x1="198.61" y1="22.21" x2="316.38" y2="352.62" gradientUnits="userSpaceOnUse"><stop offset="0" stop-color="#671481"/><stop offset="0.04" stop-color="#6f1581"/><stop offset="0.37" stop-color="#a81c7f"/><stop offset="0.65" stop-color="#d1217e"/><stop offset="0.87" stop-color="#eb247d"/><stop offset="1" stop-color="#f4257d"/></linearGradient><linearGradient id="linear-gradient-2" x1="80.45" y1="378.79" x2="400.2" y2="378.79" gradientUnits="userSpaceOnUse"><stop offset="0" stop-color="#f4257d"/><stop offset="0.17" stop-color="#f0257d"/><stop offset="0.34" stop-color="#e5237d"/><stop offset="0.51" stop-color="#d1217e"/><stop offset="0.67" stop-color="#b61e7f"/><stop offset="0.84" stop-color="#931980"/><stop offset="1" stop-color="#681481"/><stop offset="1" stop-color="#671481"/><stop offset="1" stop-color="#6c1581"/></linearGradient><linearGradient id="linear-gradient-3" y1="206.1" x2="282.1" y2="206.1" gradientUnits="userSpaceOnUse"><stop offset="0" stop-color="#f4257d"/><stop offset="0.55" stop-color="#a81c7f"/><stop offset="1" stop-color="#671481"/></linearGradient><radialGradient id="radial-gradient" cx="159.14" cy="284.37" fx="179.9139152930679" fy="253.57834327149712" r="50.88" gradientUnits="userSpaceOnUse"><stop offset="0" stop-color="#f4257d"/><stop offset="0.05" stop-color="#ec247d"/><stop offset="0.37" stop-color="#b31d7f"/><stop offset="0.65" stop-color="#8a1880"/><stop offset="0.87" stop-color="#701581"/><stop offset="1" stop-color="#671481"/><stop offset="1" stop-color="#6c1581"/></radialGradient></defs><g id="Layer_2" data-name="Layer 2"><g id="Layer_1-2" data-name="Layer 1"><path class="cls-1" d="M43.79,85.32l.09-.11L43,86.4Z"/><path class="cls-2" d="M431,215.5a214.58,214.58,0,0,1-24.7,100.26q-2.9,5.5-6.1,10.82a82.33,82.33,0,0,1-140.71-85.2q2.6-3.85,4.92-7.89l0-.07A133.22,133.22,0,0,0,148.91,33.93c-1.35,0-2.7,0-4,.06l-1.67.06c-1.57.07-3.14.16-4.7.28-1.2.09-2.39.2-3.58.33-.62.06-1.25.13-1.87.21l-.16,0q-.94.11-1.89.24l-1.79.25-.3,0-1.8.29c-.52.08-1,.17-1.55.27-.78.13-1.56.27-2.34.43l-1.87.38c-.66.13-1.32.28-2,.43-1.17.26-2.33.54-3.48.83l-.53.14-1.56.42-1.86.52-1.85.55-1.84.57q-4.52,1.45-8.89,3.2a.22.22,0,0,0-.11,0A132.15,132.15,0,0,0,77.38,54.76q-1.59,1-3.15,2.07L72.68,57.9,71.14,59,69.62,60.1c-.51.37-1,.75-1.5,1.13-2,1.53-3.94,3.1-5.84,4.73-2.85,2.44-5.6,5-8.23,7.68S48.88,79.1,46.48,82l-1.19,1.45-1.17,1.47A215.05,215.05,0,0,1,215.5,0C334.51,0,431,96.48,431,215.5Z"/><path class="cls-1" d="M43,86.4c-.9,1.2-1.8,2.4-2.68,3.62q1.7-2.38,3.5-4.7l.09-.11Z"/><path class="cls-1" d="M46.48,82a132.18,132.18,0,0,1,15.8-16A135.16,135.16,0,0,0,46.48,82Z"/><path class="cls-1" d="M68.12,61.23c-2,1.53-3.94,3.1-5.84,4.73Q65.13,63.5,68.12,61.23Z"/><path class="cls-1" d="M77.38,54.76q-1.59,1-3.15,2.07C75.27,56.12,76.32,55.42,77.38,54.76Z"/><path class="cls-1" d="M108.26,40.25q-4.52,1.45-8.89,3.2Q103.74,41.7,108.26,40.25Z"/><path class="cls-1" d="M264.41,233.49q-2.32,4-4.92,7.89A80,80,0,0,1,264.41,233.49Z"/><path class="cls-3" d="M400.2,326.58A215.53,215.53,0,0,1,80.45,383.43a133.22,133.22,0,0,0,198.35-39.5,82.32,82.32,0,0,0,121.4-17.35Z"/><path class="cls-4" d="M282.1,167.12a133.27,133.27,0,0,1-6.43,41A133.19,133.19,0,1,0,74.27,378.27,215.52,215.52,0,0,1,40.29,90c.88-1.22,1.78-2.42,2.68-3.62l.91-1.19a3.15,3.15,0,0,1,.24-.3l1.17-1.47L46.48,82q3.6-4.33,7.57-8.35C56.68,71,59.43,68.4,62.28,66c1.9-1.63,3.85-3.2,5.84-4.73.49-.38,1-.76,1.5-1.13L71.14,59l1.54-1.09,1.55-1.07q1.56-1,3.15-2.07A132.15,132.15,0,0,1,99.26,43.5a.22.22,0,0,1,.11,0q4.36-1.74,8.89-3.2l1.84-.57,1.85-.55,1.86-.52,1.56-.42.53-.14c1.15-.29,2.31-.57,3.48-.83.65-.15,1.31-.3,2-.43l1.87-.38c.78-.16,1.56-.3,2.34-.43.51-.1,1-.19,1.55-.27l1.8-.29.3,0,1.79-.25q.94-.14,1.89-.24l.16,0c.62-.08,1.25-.15,1.87-.21,1.19-.13,2.38-.24,3.58-.33,1.56-.12,3.13-.21,4.7-.28l1.67-.06c1.34,0,2.69-.06,4-.06A133.19,133.19,0,0,1,282.1,167.12Z"/><path class="cls-1" d="M43,86.4c-.9,1.2-1.8,2.4-2.68,3.62q1.7-2.38,3.5-4.7l.09-.11Z"/><path class="cls-1" d="M46.48,82a132.18,132.18,0,0,1,15.8-16A135.16,135.16,0,0,0,46.48,82Z"/><path class="cls-1" d="M68.12,61.23c-2,1.53-3.94,3.1-5.84,4.73Q65.13,63.5,68.12,61.23Z"/><path class="cls-1" d="M77.38,54.76q-1.59,1-3.15,2.07C75.27,56.12,76.32,55.42,77.38,54.76Z"/><path class="cls-1" d="M108.26,40.25q-4.52,1.45-8.89,3.2Q103.74,41.7,108.26,40.25Z"/><path class="cls-1" d="M264.41,233.49q-2.32,4-4.92,7.89A80,80,0,0,1,264.41,233.49Z"/><path class="cls-1" d="M278.8,343.93a133.22,133.22,0,0,1-198.35,39.5l-.33-.26q-2.82-2.28-5.57-4.65l-.28-.25a133.19,133.19,0,1,1,201.4-170.15,132,132,0,0,1-11.22,25.3l0,.07a80,80,0,0,0-4.92,7.89A82.33,82.33,0,0,0,278.8,343.93Z"/><path class="cls-1" d="M74.55,378.52q2.74,2.37,5.57,4.65Q77.27,380.92,74.55,378.52Z"/><path class="cls-1" d="M264.41,233.49q-2.32,4-4.92,7.89A80,80,0,0,1,264.41,233.49Z"/><path class="cls-1" d="M264.41,233.49q-2.32,4-4.92,7.89A80,80,0,0,1,264.41,233.49Z"/><path class="cls-1" d="M406.3,315.76a81.92,81.92,0,0,1-6.1,10.82Q403.4,321.27,406.3,315.76Z"/><circle class="cls-5" cx="159.14" cy="284.37" r="50.88"/></g></g></svg>